<svg xmlns="http://www.w3.org/2000/svg" enable-background="new 0 0 68 68" viewBox="0 0 68 68" id="GraphicDesigning"><path d="M34.9,12.1c-0.2-0.3-0.5-0.5-0.9-0.5h0c-0.4,0-0.7,0.2-0.9,0.5c-7.3,14.4-6.7,13.3-6.7,13.5v37.9c0,1.9,1.6,3.5,3.5,3.5
		h8.2c1.9,0,3.5-1.6,3.5-3.5c0-40.5,0.1-38.1-0.2-38.5L34.9,12.1z M34,14.8l2.2,4.3c-1.4,0.5-3,0.5-4.4,0L34,14.8z M30.9,20.9
		c2,0.7,4.2,0.7,6.2,0l1.9,3.7H29L30.9,20.9z M28.4,26.6H33v28.9h-4.6V26.6z M39.6,63.5c0,0.8-0.7,1.5-1.5,1.5h-8.2
		c-0.8,0-1.5-0.7-1.5-1.5v-6h11.2V63.5z M39.6,55.5H35V26.6h4.6V55.5z" fill="#2b7a78" class="color000000 svgShape"></path><path d="M55.9,9.2L55.9,9.2c2.3,0,4.1-1.8,4.1-4.1C60,2.8,58.2,1,55.9,1C54,1,52.5,2.3,52,4.1H38.1V2c0-0.6-0.4-1-1-1h-6.1
		c-0.6,0-1,0.4-1,1v2.1H16C15.5,2.3,14,1,12,1C9.8,1,8,2.8,8,5.1C8,7.3,9.8,9.2,12,9.2h0c1.9,0,3.5-1.3,3.9-3.1h8.7
		c-6.8,3-11.9,9.3-13.3,16.9H9c-0.6,0-1,0.4-1,1v6.1c0,0.6,0.4,1,1,1h6.2c0.6,0,1-0.4,1-1V24c0-0.6-0.4-1-1-1h-1.7
		c1.6-8.3,8.2-14.8,16.5-16.5v1.7c0,0.6,0.4,1,1,1h6.1c0.6,0,1-0.4,1-1V6.5c8.3,1.6,14.8,8.2,16.5,16.5h-1.7c-0.6,0-1,0.4-1,1v6.1
		c0,0.6,0.4,1,1,1H59c0.6,0,1-0.4,1-1V24c0-0.6-0.4-1-1-1h-2.5c-1.4-7.6-6.4-13.8-13.3-16.9H52C52.5,7.8,54,9.2,55.9,9.2z M56,3
		C57.1,3,58,3.9,58,5.1c0,1.1-0.9,2.1-2.1,2.1h0c-1.1,0-2.1-0.9-2.1-2.1C53.9,3.9,54.8,3,56,3z M12.1,7.2L12.1,7.2
		c-1.2,0-2.1-0.9-2.1-2.1C10,3.9,10.9,3,12.1,3c1.1,0,2.1,0.9,2.1,2.1C14.1,6.2,13.2,7.2,12.1,7.2z M14.1,25v4.1H10V25H14.1z
		 M36.1,7.2h-4.1V3h4.1V7.2z M58,25v4.1h-4.2V25H58z" fill="#2b7a78" class="color000000 svgShape"></path></svg>